STARTFONT 2.1
FONT -Monotype-Gill Sans-Medium-I-Normal--14-140-72-72-P-61-ISO8859-1
SIZE 14 72 72
FONTBOUNDINGBOX 21 17 -6 -3

STARTPROPERTIES 22
FOUNDRY "Monotype"
FAMILY_NAME "Gill Sans"
WEIGHT_NAME "Medium"
SLANT "I"
SETWIDTH_NAME "Normal"
ADD_STYLE_NAME ""
PIXEL_SIZE 14
POINT_SIZE 140
RESOLUTION_X 72
RESOLUTION_Y 72
SPACING "P"
AVERAGE_WIDTH 61
CHARSET_REGISTRY "ISO8859"
CHARSET_ENCODING "1"
FULL_NAME "GillSans-Italic"
COPYRIGHT "Copyright (c) 1991 The Monotype Corporation plc."
WEIGHT 10
X_HEIGHT 7
QUAD_WIDTH 8
DEFAULT_CHAR 32
FONT_DESCENT 4
FONT_ASCENT 12
ENDPROPERTIES

CHARS 190

STARTCHAR space
ENCODING 32
SWIDTH 278 0
DWIDTH 4 0
BBX 1 1 0 0
BITMAP
00
ENDCHAR

STARTCHAR exclam
ENCODING 33
SWIDTH 250 0
DWIDTH 4 0
BBX 3 10 1 0
BITMAP
60
40
40
40
40
40
40
00
00
C0
ENDCHAR

STARTCHAR quotedbl
ENCODING 34
SWIDTH 354 0
DWIDTH 5 0
BBX 4 4 1 6
BITMAP
B0
B0
B0
A0
ENDCHAR

STARTCHAR numbersign
ENCODING 35
SWIDTH 584 0
DWIDTH 9 0
BBX 8 11 1 -1
BITMAP
12
22
22
FF
22
24
24
FF
44
44
4C
ENDCHAR

STARTCHAR dollar
ENCODING 36
SWIDTH 500 0
DWIDTH 7 0
BBX 6 11 1 -1
BITMAP
3C
54
50
70
70
18
1C
2C
A4
F8
20
ENDCHAR

STARTCHAR percent
ENCODING 37
SWIDTH 708 0
DWIDTH 10 0
BBX 9 10 1 0
BITMAP
7100
9200
9600
7400
0800
1F00
1580
2C80
2580
4700
ENDCHAR

STARTCHAR ampersand
ENCODING 38
SWIDTH 688 0
DWIDTH 10 0
BBX 9 10 1 0
BITMAP
1800
2C00
2400
2800
3000
7000
D900
8A00
C600
7B80
ENDCHAR

STARTCHAR quoteright
ENCODING 39
SWIDTH 198 0
DWIDTH 3 0
BBX 2 3 1 7
BITMAP
C0
40
80
ENDCHAR

STARTCHAR parenleft
ENCODING 40
SWIDTH 292 0
DWIDTH 4 0
BBX 4 13 1 -3
BITMAP
10
20
60
40
C0
C0
80
80
80
80
80
40
40
ENDCHAR

STARTCHAR parenright
ENCODING 41
SWIDTH 292 0
DWIDTH 4 0
BBX 4 13 0 -3
BITMAP
20
20
10
10
10
10
10
30
20
20
60
40
80
ENDCHAR

STARTCHAR asterisk
ENCODING 42
SWIDTH 448 0
DWIDTH 6 0
BBX 5 6 1 4
BITMAP
20
A8
70
70
A8
20
ENDCHAR

STARTCHAR plus
ENCODING 43
SWIDTH 584 0
DWIDTH 8 0
BBX 7 7 1 1
BITMAP
10
10
10
FE
10
10
10
ENDCHAR

STARTCHAR comma
ENCODING 44
SWIDTH 198 0
DWIDTH 3 0
BBX 2 3 0 -2
BITMAP
C0
40
80
ENDCHAR

STARTCHAR minus
ENCODING 45
SWIDTH 584 0
DWIDTH 8 0
BBX 7 1 1 4
BITMAP
FE
ENDCHAR

STARTCHAR period
ENCODING 46
SWIDTH 198 0
DWIDTH 3 0
BBX 1 1 0 0
BITMAP
80
ENDCHAR

STARTCHAR slash
ENCODING 47
SWIDTH 281 0
DWIDTH 5 0
BBX 4 13 0 -3
BITMAP
10
10
20
20
20
20
40
40
40
40
80
80
80
ENDCHAR

STARTCHAR zero
ENCODING 48
SWIDTH 521 0
DWIDTH 7 0
BBX 6 10 1 0
BITMAP
38
64
44
C4
C4
84
8C
8C
D8
70
ENDCHAR

STARTCHAR one
ENCODING 49
SWIDTH 521 0
DWIDTH 7 0
BBX 3 10 2 0
BITMAP
60
60
40
40
40
40
40
C0
80
80
ENDCHAR

STARTCHAR two
ENCODING 50
SWIDTH 521 0
DWIDTH 7 0
BBX 6 10 0 0
BITMAP
38
64
04
04
08
08
10
20
60
FC
ENDCHAR

STARTCHAR three
ENCODING 51
SWIDTH 521 0
DWIDTH 7 0
BBX 6 10 0 0
BITMAP
38
64
04
0C
18
08
0C
0C
88
F0
ENDCHAR

STARTCHAR four
ENCODING 52
SWIDTH 521 0
DWIDTH 7 0
BBX 6 10 1 0
BITMAP
04
0C
18
38
28
48
FC
08
18
10
ENDCHAR

STARTCHAR five
ENCODING 53
SWIDTH 521 0
DWIDTH 7 0
BBX 6 10 0 0
BITMAP
3C
20
20
38
0C
0C
04
0C
88
F0
ENDCHAR

STARTCHAR six
ENCODING 54
SWIDTH 521 0
DWIDTH 7 0
BBX 6 10 1 0
BITMAP
18
30
20
78
4C
C4
84
88
C8
70
ENDCHAR

STARTCHAR seven
ENCODING 55
SWIDTH 521 0
DWIDTH 7 0
BBX 6 10 2 0
BITMAP
FC
08
08
10
10
20
20
40
40
80
ENDCHAR

STARTCHAR eight
ENCODING 56
SWIDTH 521 0
DWIDTH 7 0
BBX 6 10 1 0
BITMAP
38
64
44
44
38
4C
84
84
CC
78
ENDCHAR

STARTCHAR nine
ENCODING 57
SWIDTH 521 0
DWIDTH 7 0
BBX 6 10 1 0
BITMAP
38
4C
84
8C
CC
78
10
10
20
40
ENDCHAR

STARTCHAR colon
ENCODING 58
SWIDTH 198 0
DWIDTH 3 0
BBX 2 7 0 0
BITMAP
40
00
00
00
00
00
C0
ENDCHAR

STARTCHAR semicolon
ENCODING 59
SWIDTH 198 0
DWIDTH 3 0
BBX 3 8 0 -1
BITMAP
60
00
00
00
00
C0
40
80
ENDCHAR

STARTCHAR less
ENCODING 60
SWIDTH 584 0
DWIDTH 8 0
BBX 7 8 1 1
BITMAP
02
0C
30
C0
C0
30
0C
02
ENDCHAR

STARTCHAR equal
ENCODING 61
SWIDTH 584 0
DWIDTH 8 0
BBX 7 4 1 3
BITMAP
FE
00
00
FE
ENDCHAR

STARTCHAR greater
ENCODING 62
SWIDTH 584 0
DWIDTH 8 0
BBX 7 8 1 1
BITMAP
80
E0
38
06
06
38
E0
80
ENDCHAR

STARTCHAR question
ENCODING 63
SWIDTH 354 0
DWIDTH 5 0
BBX 4 10 1 0
BITMAP
70
90
10
30
60
40
40
00
00
C0
ENDCHAR

STARTCHAR at
ENCODING 64
SWIDTH 1010 0
DWIDTH 14 0
BBX 13 13 1 -3
BITMAP
0FC0
3060
6750
48C8
98C8
9088
9088
9190
99B0
CFC8
4010
3060
0F80
ENDCHAR

STARTCHAR A
ENCODING 65
SWIDTH 521 0
DWIDTH 7 0
BBX 7 10 0 0
BITMAP
0C
0C
14
14
24
24
3E
42
42
82
ENDCHAR

STARTCHAR B
ENCODING 66
SWIDTH 510 0
DWIDTH 7 0
BBX 6 10 1 0
BITMAP
78
4C
4C
4C
78
4C
C4
C4
C4
F8
ENDCHAR

STARTCHAR C
ENCODING 67
SWIDTH 552 0
DWIDTH 8 0
BBX 7 10 1 0
BITMAP
0E
30
60
C0
C0
80
80
C0
42
3C
ENDCHAR

STARTCHAR D
ENCODING 68
SWIDTH 656 0
DWIDTH 9 0
BBX 8 10 1 0
BITMAP
78
46
43
41
41
41
C1
C3
C6
FC
ENDCHAR

STARTCHAR E
ENCODING 69
SWIDTH 510 0
DWIDTH 7 0
BBX 6 10 1 0
BITMAP
7C
40
40
40
78
40
C0
C0
80
FC
ENDCHAR

STARTCHAR F
ENCODING 70
SWIDTH 417 0
DWIDTH 6 0
BBX 6 10 0 0
BITMAP
7C
40
40
40
78
40
C0
C0
80
80
ENDCHAR

STARTCHAR G
ENCODING 71
SWIDTH 604 0
DWIDTH 8 0
BBX 8 10 0 0
BITMAP
0F
30
60
C0
80
80
87
C2
62
3E
ENDCHAR

STARTCHAR H
ENCODING 72
SWIDTH 698 0
DWIDTH 10 0
BBX 9 10 0 0
BITMAP
6080
4080
4180
4180
7F80
4100
C100
C100
C100
8300
ENDCHAR

STARTCHAR I
ENCODING 73
SWIDTH 240 0
DWIDTH 3 0
BBX 3 10 1 0
BITMAP
60
40
40
40
40
40
C0
C0
C0
80
ENDCHAR

STARTCHAR J
ENCODING 74
SWIDTH 240 0
DWIDTH 3 0
BBX 5 13 -1 -3
BITMAP
08
08
08
18
18
10
10
10
10
10
30
20
E0
ENDCHAR

STARTCHAR K
ENCODING 75
SWIDTH 563 0
DWIDTH 8 0
BBX 8 10 0 0
BITMAP
63
44
48
50
60
50
C8
CC
84
82
ENDCHAR

STARTCHAR L
ENCODING 76
SWIDTH 417 0
DWIDTH 6 0
BBX 5 10 0 0
BITMAP
60
40
40
40
40
40
C0
C0
80
F8
ENDCHAR

STARTCHAR M
ENCODING 77
SWIDTH 813 0
DWIDTH 11 0
BBX 10 10 0 0
BITMAP
1040
18C0
28C0
29C0
2940
6B40
4640
4640
4440
8440
ENDCHAR

STARTCHAR N
ENCODING 78
SWIDTH 688 0
DWIDTH 10 0
BBX 9 10 1 0
BITMAP
4080
6080
6180
5100
4900
4900
C500
C300
8300
8100
ENDCHAR

STARTCHAR O
ENCODING 79
SWIDTH 656 0
DWIDTH 9 0
BBX 8 10 1 0
BITMAP
1C
22
43
C1
81
81
83
C2
44
38
ENDCHAR

STARTCHAR P
ENCODING 80
SWIDTH 448 0
DWIDTH 6 0
BBX 6 10 0 0
BITMAP
78
4C
44
4C
78
40
C0
C0
80
80
ENDCHAR

STARTCHAR Q
ENCODING 81
SWIDTH 656 0
DWIDTH 9 0
BBX 8 13 1 -3
BITMAP
1C
22
43
C1
C1
81
83
82
42
44
39
19
0E
ENDCHAR

STARTCHAR R
ENCODING 82
SWIDTH 531 0
DWIDTH 7 0
BBX 7 10 1 0
BITMAP
78
44
44
44
7C
48
C8
C4
84
86
ENDCHAR

STARTCHAR S
ENCODING 83
SWIDTH 458 0
DWIDTH 6 0
BBX 5 10 1 0
BITMAP
38
48
40
40
20
10
08
08
88
F0
ENDCHAR

STARTCHAR T
ENCODING 84
SWIDTH 510 0
DWIDTH 7 0
BBX 7 10 1 0
BITMAP
FE
10
30
30
30
20
20
20
20
20
ENDCHAR

STARTCHAR U
ENCODING 85
SWIDTH 635 0
DWIDTH 9 0
BBX 8 10 1 0
BITMAP
41
41
43
C3
C2
82
82
82
C4
78
ENDCHAR

STARTCHAR V
ENCODING 86
SWIDTH 510 0
DWIDTH 7 0
BBX 7 10 1 0
BITMAP
82
C4
C4
48
48
50
50
60
20
20
ENDCHAR

STARTCHAR W
ENCODING 87
SWIDTH 927 0
DWIDTH 13 0
BBX 13 10 1 0
BITMAP
8208
8610
4610
4620
4920
4940
3140
3180
2080
2080
ENDCHAR

STARTCHAR X
ENCODING 88
SWIDTH 667 0
DWIDTH 9 0
BBX 10 10 0 0
BITMAP
20C0
1100
1B00
0E00
0400
0C00
1200
3200
2100
C180
ENDCHAR

STARTCHAR Y
ENCODING 89
SWIDTH 490 0
DWIDTH 7 0
BBX 7 10 1 0
BITMAP
86
4C
48
30
30
20
20
20
20
20
ENDCHAR

STARTCHAR Z
ENCODING 90
SWIDTH 583 0
DWIDTH 8 0
BBX 9 10 0 0
BITMAP
3F80
0100
0200
0600
0C00
0800
1000
2000
6000
FF00
ENDCHAR

STARTCHAR bracketleft
ENCODING 91
SWIDTH 333 0
DWIDTH 5 0
BBX 5 13 1 -3
BITMAP
38
20
60
40
40
40
40
40
40
C0
C0
80
E0
ENDCHAR

STARTCHAR backslash
ENCODING 92
SWIDTH 281 0
DWIDTH 4 0
BBX 3 10 1 0
BITMAP
80
80
80
40
40
40
40
40
40
60
ENDCHAR

STARTCHAR bracketright
ENCODING 93
SWIDTH 333 0
DWIDTH 5 0
BBX 5 13 0 -3
BITMAP
38
18
10
10
10
10
10
10
30
20
20
20
E0
ENDCHAR

STARTCHAR asciicircum
ENCODING 94
SWIDTH 469 0
DWIDTH 7 0
BBX 6 5 1 5
BITMAP
30
30
48
48
8C
ENDCHAR

STARTCHAR underscore
ENCODING 95
SWIDTH 500 0
DWIDTH 8 0
BBX 8 1 0 -3
BITMAP
FF
ENDCHAR

STARTCHAR quoteleft
ENCODING 96
SWIDTH 198 0
DWIDTH 3 0
BBX 2 3 1 7
BITMAP
40
80
C0
ENDCHAR

STARTCHAR a
ENCODING 97
SWIDTH 469 0
DWIDTH 7 0
BBX 6 7 0 0
BITMAP
3C
4C
C8
88
88
D8
68
ENDCHAR

STARTCHAR b
ENCODING 98
SWIDTH 469 0
DWIDTH 7 0
BBX 6 10 0 0
BITMAP
60
40
40
78
48
44
C4
CC
98
F0
ENDCHAR

STARTCHAR c
ENCODING 99
SWIDTH 385 0
DWIDTH 5 0
BBX 5 7 0 0
BITMAP
38
40
C0
80
80
C8
78
ENDCHAR

STARTCHAR d
ENCODING 100
SWIDTH 469 0
DWIDTH 7 0
BBX 6 10 0 0
BITMAP
04
04
04
3C
6C
CC
88
88
C8
78
ENDCHAR

STARTCHAR e
ENCODING 101
SWIDTH 438 0
DWIDTH 6 0
BBX 5 7 1 0
BITMAP
70
48
C8
F8
80
C8
70
ENDCHAR

STARTCHAR f
ENCODING 102
SWIDTH 271 0
DWIDTH 4 0
BBX 6 13 0 -3
BITMAP
3C
20
40
F0
40
40
40
40
C0
C0
80
80
80
ENDCHAR

STARTCHAR g
ENCODING 103
SWIDTH 427 0
DWIDTH 6 0
BBX 6 10 0 -3
BITMAP
3C
48
48
48
38
40
70
C8
88
78
ENDCHAR

STARTCHAR h
ENCODING 104
SWIDTH 469 0
DWIDTH 7 0
BBX 6 10 0 0
BITMAP
60
40
40
58
6C
4C
C8
C8
88
88
ENDCHAR

STARTCHAR i
ENCODING 105
SWIDTH 188 0
DWIDTH 3 0
BBX 2 10 0 0
BITMAP
40
00
00
40
40
40
C0
C0
80
80
ENDCHAR

STARTCHAR j
ENCODING 106
SWIDTH 188 0
DWIDTH 3 0
BBX 4 13 0 -3
BITMAP
10
00
00
10
30
30
20
20
20
20
20
20
C0
ENDCHAR

STARTCHAR k
ENCODING 107
SWIDTH 458 0
DWIDTH 6 0
BBX 6 10 0 0
BITMAP
60
40
40
4C
50
70
E0
F0
98
8C
ENDCHAR

STARTCHAR l
ENCODING 108
SWIDTH 188 0
DWIDTH 3 0
BBX 3 10 0 0
BITMAP
60
40
40
40
40
40
C0
C0
80
80
ENDCHAR

STARTCHAR m
ENCODING 109
SWIDTH 740 0
DWIDTH 10 0
BBX 9 7 0 0
BITMAP
5B80
6E80
4C80
C880
C880
8880
8880
ENDCHAR

STARTCHAR n
ENCODING 110
SWIDTH 469 0
DWIDTH 7 0
BBX 6 7 0 0
BITMAP
58
6C
4C
C8
C8
88
88
ENDCHAR

STARTCHAR o
ENCODING 111
SWIDTH 448 0
DWIDTH 6 0
BBX 5 7 1 0
BITMAP
30
48
88
88
88
98
70
ENDCHAR

STARTCHAR p
ENCODING 112
SWIDTH 490 0
DWIDTH 7 0
BBX 6 11 0 -3
BITMAP
20
78
4C
C4
44
44
48
F0
80
80
80
ENDCHAR

STARTCHAR q
ENCODING 113
SWIDTH 469 0
DWIDTH 7 0
BBX 6 10 0 -3
BITMAP
3C
4C
C8
88
88
C8
78
08
18
18
ENDCHAR

STARTCHAR r
ENCODING 114
SWIDTH 313 0
DWIDTH 4 0
BBX 4 7 1 0
BITMAP
70
40
40
C0
80
80
80
ENDCHAR

STARTCHAR s
ENCODING 115
SWIDTH 354 0
DWIDTH 5 0
BBX 4 7 0 0
BITMAP
70
D0
40
20
10
90
F0
ENDCHAR

STARTCHAR t
ENCODING 116
SWIDTH 281 0
DWIDTH 4 0
BBX 4 8 0 0
BITMAP
60
F0
40
40
40
40
C0
60
ENDCHAR

STARTCHAR u
ENCODING 117
SWIDTH 469 0
DWIDTH 7 0
BBX 6 7 1 0
BITMAP
4C
C8
C8
88
88
98
F8
ENDCHAR

STARTCHAR v
ENCODING 118
SWIDTH 375 0
DWIDTH 5 0
BBX 5 7 1 0
BITMAP
88
90
50
70
60
60
40
ENDCHAR

STARTCHAR w
ENCODING 119
SWIDTH 615 0
DWIDTH 9 0
BBX 9 7 0 0
BITMAP
8980
9900
DA00
6A00
6C00
4400
4400
ENDCHAR

STARTCHAR x
ENCODING 120
SWIDTH 427 0
DWIDTH 6 0
BBX 6 7 0 0
BITMAP
64
28
38
10
30
68
CC
ENDCHAR

STARTCHAR y
ENCODING 121
SWIDTH 375 0
DWIDTH 5 0
BBX 6 10 0 -3
BITMAP
4C
48
58
50
70
20
20
40
40
80
ENDCHAR

STARTCHAR z
ENCODING 122
SWIDTH 458 0
DWIDTH 6 0
BBX 6 7 0 0
BITMAP
7C
08
18
10
20
40
FC
ENDCHAR

STARTCHAR braceleft
ENCODING 123
SWIDTH 333 0
DWIDTH 5 0
BBX 4 13 0 -3
BITMAP
30
40
40
40
40
40
80
40
40
40
40
40
30
ENDCHAR

STARTCHAR bar
ENCODING 124
SWIDTH 260 0
DWIDTH 4 0
BBX 4 13 0 -3
BITMAP
10
20
20
20
20
20
40
40
40
40
40
80
80
ENDCHAR

STARTCHAR braceright
ENCODING 125
SWIDTH 333 0
DWIDTH 5 0
BBX 4 13 0 -3
BITMAP
C0
20
20
20
20
20
10
20
20
20
20
20
C0
ENDCHAR

STARTCHAR asciitilde
ENCODING 126
SWIDTH 584 0
DWIDTH 8 0
BBX 7 2 1 5
BITMAP
F2
9E
ENDCHAR

STARTCHAR exclamdown
ENCODING 161
SWIDTH 250 0
DWIDTH 4 0
BBX 3 9 0 -3
BITMAP
60
00
00
40
40
40
80
80
80
ENDCHAR

STARTCHAR cent
ENCODING 162
SWIDTH 385 0
DWIDTH 5 0
BBX 5 13 0 -3
BITMAP
08
08
08
38
50
90
B0
A0
A8
78
40
40
40
ENDCHAR

STARTCHAR sterling
ENCODING 163
SWIDTH 469 0
DWIDTH 7 0
BBX 7 10 0 0
BITMAP
0E
10
10
20
F8
40
40
40
40
FC
ENDCHAR

STARTCHAR currency
ENCODING 164
SWIDTH 552 0
DWIDTH 8 0
BBX 8 8 0 1
BITMAP
83
7F
66
42
42
66
FE
C1
ENDCHAR

STARTCHAR yen
ENCODING 165
SWIDTH 552 0
DWIDTH 8 0
BBX 9 10 1 0
BITMAP
4180
2300
2200
2400
1800
FE00
1000
FE00
1000
3000
ENDCHAR

STARTCHAR brokenbar
ENCODING 166
SWIDTH 260 0
DWIDTH 4 0
BBX 4 13 0 -3
BITMAP
10
20
20
20
20
00
00
40
40
40
40
80
80
ENDCHAR

STARTCHAR section
ENCODING 167
SWIDTH 490 0
DWIDTH 7 0
BBX 6 13 0 -3
BITMAP
1C
24
20
30
48
CC
C4
4C
38
10
88
98
70
ENDCHAR

STARTCHAR dieresis
ENCODING 168
SWIDTH 333 0
DWIDTH 5 0
BBX 4 1 1 9
BITMAP
90
ENDCHAR

STARTCHAR copyright
ENCODING 169
SWIDTH 740 0
DWIDTH 10 0
BBX 10 10 0 0
BITMAP
1E00
6D80
5280
9040
9040
9040
9240
4C80
6180
1E00
ENDCHAR

STARTCHAR ordfeminine
ENCODING 170
SWIDTH 313 0
DWIDTH 4 0
BBX 4 4 1 6
BITMAP
70
90
90
E0
ENDCHAR

STARTCHAR guillemotleft
ENCODING 171
SWIDTH 438 0
DWIDTH 6 0
BBX 6 7 0 0
BITMAP
28
24
24
34
24
48
D0
ENDCHAR

STARTCHAR logicalnot
ENCODING 172
SWIDTH 584 0
DWIDTH 8 0
BBX 6 4 1 2
BITMAP
FC
04
04
04
ENDCHAR

STARTCHAR hyphen
ENCODING 173
SWIDTH 250 0
DWIDTH 4 0
BBX 4 1 0 2
BITMAP
F0
ENDCHAR

STARTCHAR registered
ENCODING 174
SWIDTH 740 0
DWIDTH 10 0
BBX 10 10 0 0
BITMAP
1E00
6180
5E80
9240
9E40
9440
9440
5280
6180
1E00
ENDCHAR

STARTCHAR macron
ENCODING 175
SWIDTH 333 0
DWIDTH 5 0
BBX 5 1 1 9
BITMAP
F8
ENDCHAR

STARTCHAR degree
ENCODING 176
SWIDTH 396 0
DWIDTH 6 0
BBX 4 4 1 6
BITMAP
60
90
90
60
ENDCHAR

STARTCHAR plusminus
ENCODING 177
SWIDTH 584 0
DWIDTH 8 0
BBX 7 9 1 0
BITMAP
10
10
10
FE
10
10
10
00
FE
ENDCHAR

STARTCHAR twosuperior
ENCODING 178
SWIDTH 323 0
DWIDTH 4 0
BBX 3 6 -5 4
BITMAP
60
20
20
20
40
E0
ENDCHAR

STARTCHAR threesuperior
ENCODING 179
SWIDTH 323 0
DWIDTH 4 0
BBX 4 6 -5 4
BITMAP
60
10
60
20
20
E0
ENDCHAR

STARTCHAR acute
ENCODING 180
SWIDTH 333 0
DWIDTH 5 0
BBX 2 2 2 8
BITMAP
40
80
ENDCHAR

STARTCHAR mu
ENCODING 181
SWIDTH 552 0
DWIDTH 8 0
BBX 7 9 0 -2
BITMAP
22
22
44
44
44
4C
7C
80
80
ENDCHAR

STARTCHAR paragraph
ENCODING 182
SWIDTH 542 0
DWIDTH 8 0
BBX 8 13 0 -3
BITMAP
7F
F2
F2
F2
72
12
12
12
12
12
12
12
12
ENDCHAR

STARTCHAR periodcentered
ENCODING 183
SWIDTH 260 0
DWIDTH 4 0
BBX 1 1 1 3
BITMAP
80
ENDCHAR

STARTCHAR cedilla
ENCODING 184
SWIDTH 333 0
DWIDTH 5 0
BBX 2 3 1 -3
BITMAP
40
40
C0
ENDCHAR

STARTCHAR onesuperior
ENCODING 185
SWIDTH 323 0
DWIDTH 4 0
BBX 2 6 -6 4
BITMAP
C0
80
80
80
80
80
ENDCHAR

STARTCHAR ordmasculine
ENCODING 186
SWIDTH 302 0
DWIDTH 4 0
BBX 4 4 1 6
BITMAP
60
90
A0
E0
ENDCHAR

STARTCHAR guillemotright
ENCODING 187
SWIDTH 438 0
DWIDTH 6 0
BBX 6 7 0 0
BITMAP
24
48
58
90
90
50
48
ENDCHAR

STARTCHAR onequarter
ENCODING 188
SWIDTH 844 0
DWIDTH 12 0
BBX 10 10 3 0
BITMAP
C180
8300
8200
8400
8880
9880
1180
23C0
4080
C080
ENDCHAR

STARTCHAR onehalf
ENCODING 189
SWIDTH 844 0
DWIDTH 12 0
BBX 9 10 3 0
BITMAP
C180
8300
8200
8400
8980
9880
1080
2080
4100
C380
ENDCHAR

STARTCHAR threequarters
ENCODING 190
SWIDTH 844 0
DWIDTH 12 0
BBX 11 10 4 0
BITMAP
60C0
1180
6100
2200
2440
EC40
08C0
11E0
2040
6040
ENDCHAR

STARTCHAR questiondown
ENCODING 191
SWIDTH 354 0
DWIDTH 5 0
BBX 4 9 0 -3
BITMAP
10
00
10
20
60
C0
80
90
70
ENDCHAR

STARTCHAR Agrave
ENCODING 192
SWIDTH 521 0
DWIDTH 7 0
BBX 7 13 0 0
BITMAP
0C
04
00
0C
0C
14
14
24
24
3E
42
42
82
ENDCHAR

STARTCHAR Aacute
ENCODING 193
SWIDTH 521 0
DWIDTH 7 0
BBX 7 13 0 0
BITMAP
04
08
00
0C
0C
14
14
24
24
3E
42
42
82
ENDCHAR

STARTCHAR Acircumflex
ENCODING 194
SWIDTH 521 0
DWIDTH 7 0
BBX 7 13 0 0
BITMAP
0C
1A
00
0C
0C
14
14
24
24
3E
42
42
82
ENDCHAR

STARTCHAR Atilde
ENCODING 195
SWIDTH 521 0
DWIDTH 7 0
BBX 7 12 0 0
BITMAP
1E
10
0C
0C
14
14
24
24
3E
42
42
82
ENDCHAR

STARTCHAR Adieresis
ENCODING 196
SWIDTH 521 0
DWIDTH 7 0
BBX 7 12 0 0
BITMAP
12
00
0C
0C
14
14
24
24
3E
42
42
82
ENDCHAR

STARTCHAR Aring
ENCODING 197
SWIDTH 521 0
DWIDTH 7 0
BBX 7 14 0 0
BITMAP
0E
0A
0E
00
0C
0C
14
14
24
24
3E
42
42
82
ENDCHAR

STARTCHAR AE
ENCODING 198
SWIDTH 833 0
DWIDTH 12 0
BBX 12 10 0 0
BITMAP
07F0
0700
0A00
1A00
1FE0
2200
2200
6200
4600
C7F0
ENDCHAR

STARTCHAR Ccedilla
ENCODING 199
SWIDTH 552 0
DWIDTH 8 0
BBX 7 13 1 -3
BITMAP
0E
30
60
C0
C0
80
80
C0
42
3C
20
20
60
ENDCHAR

STARTCHAR Egrave
ENCODING 200
SWIDTH 510 0
DWIDTH 7 0
BBX 6 13 1 0
BITMAP
30
10
00
7C
40
40
40
78
40
C0
C0
80
FC
ENDCHAR

STARTCHAR Eacute
ENCODING 201
SWIDTH 510 0
DWIDTH 7 0
BBX 6 13 1 0
BITMAP
08
10
00
7C
40
40
40
78
40
C0
C0
80
FC
ENDCHAR

STARTCHAR Ecircumflex
ENCODING 202
SWIDTH 510 0
DWIDTH 7 0
BBX 6 13 1 0
BITMAP
18
34
00
7C
40
40
40
78
40
C0
C0
80
FC
ENDCHAR

STARTCHAR Edieresis
ENCODING 203
SWIDTH 510 0
DWIDTH 7 0
BBX 6 12 1 0
BITMAP
24
00
7C
40
40
40
78
40
C0
C0
80
FC
ENDCHAR

STARTCHAR Igrave
ENCODING 204
SWIDTH 240 0
DWIDTH 3 0
BBX 3 13 1 0
BITMAP
60
20
00
60
40
40
40
40
40
C0
C0
C0
80
ENDCHAR

STARTCHAR Iacute
ENCODING 205
SWIDTH 240 0
DWIDTH 3 0
BBX 3 13 1 0
BITMAP
20
40
00
60
40
40
40
40
40
C0
C0
C0
80
ENDCHAR

STARTCHAR Icircumflex
ENCODING 206
SWIDTH 240 0
DWIDTH 3 0
BBX 4 13 1 0
BITMAP
60
D0
00
60
40
40
40
40
40
C0
C0
C0
80
ENDCHAR

STARTCHAR Idieresis
ENCODING 207
SWIDTH 240 0
DWIDTH 3 0
BBX 4 12 1 0
BITMAP
90
00
60
40
40
40
40
40
C0
C0
C0
80
ENDCHAR

STARTCHAR Eth
ENCODING 208
SWIDTH 656 0
DWIDTH 9 0
BBX 9 10 0 0
BITMAP
3C00
2600
6100
6100
F980
4180
4100
4100
4200
FC00
ENDCHAR

STARTCHAR Ntilde
ENCODING 209
SWIDTH 688 0
DWIDTH 10 0
BBX 9 12 1 0
BITMAP
1E00
1000
4080
6080
6180
5100
4900
4900
C500
C300
8300
8100
ENDCHAR

STARTCHAR Ograve
ENCODING 210
SWIDTH 656 0
DWIDTH 9 0
BBX 8 13 1 0
BITMAP
18
08
00
1C
22
43
C1
81
81
83
C2
44
38
ENDCHAR

STARTCHAR Oacute
ENCODING 211
SWIDTH 656 0
DWIDTH 9 0
BBX 8 13 1 0
BITMAP
04
08
00
1C
22
43
C1
81
81
83
C2
44
38
ENDCHAR

STARTCHAR Ocircumflex
ENCODING 212
SWIDTH 656 0
DWIDTH 9 0
BBX 8 13 1 0
BITMAP
0C
1A
00
1C
22
43
C1
81
81
83
C2
44
38
ENDCHAR

STARTCHAR Otilde
ENCODING 213
SWIDTH 656 0
DWIDTH 9 0
BBX 8 12 1 0
BITMAP
1E
10
1C
22
43
C1
81
81
83
C2
44
38
ENDCHAR

STARTCHAR Odieresis
ENCODING 214
SWIDTH 656 0
DWIDTH 9 0
BBX 8 12 1 0
BITMAP
12
00
1C
22
43
C1
81
81
83
C2
44
38
ENDCHAR

STARTCHAR multiply
ENCODING 215
SWIDTH 584 0
DWIDTH 8 0
BBX 6 6 1 2
BITMAP
84
48
30
30
48
84
ENDCHAR

STARTCHAR Oslash
ENCODING 216
SWIDTH 656 0
DWIDTH 9 0
BBX 9 10 1 0
BITMAP
1C80
2300
4300
C500
8900
9900
B300
E200
4400
B800
ENDCHAR

STARTCHAR Ugrave
ENCODING 217
SWIDTH 635 0
DWIDTH 9 0
BBX 8 13 1 0
BITMAP
18
08
00
41
41
43
C3
C2
82
82
82
C4
78
ENDCHAR

STARTCHAR Uacute
ENCODING 218
SWIDTH 635 0
DWIDTH 9 0
BBX 8 13 1 0
BITMAP
04
08
00
41
41
43
C3
C2
82
82
82
C4
78
ENDCHAR

STARTCHAR Ucircumflex
ENCODING 219
SWIDTH 635 0
DWIDTH 9 0
BBX 8 13 1 0
BITMAP
18
34
00
41
41
43
C3
C2
82
82
82
C4
78
ENDCHAR

STARTCHAR Udieresis
ENCODING 220
SWIDTH 635 0
DWIDTH 9 0
BBX 8 12 1 0
BITMAP
12
00
41
41
43
C3
C2
82
82
82
C4
78
ENDCHAR

STARTCHAR Yacute
ENCODING 221
SWIDTH 490 0
DWIDTH 7 0
BBX 7 13 1 0
BITMAP
08
10
00
86
4C
48
30
30
20
20
20
20
20
ENDCHAR

STARTCHAR Thorn
ENCODING 222
SWIDTH 448 0
DWIDTH 6 0
BBX 6 10 0 0
BITMAP
60
40
78
4C
4C
4C
C8
F0
C0
80
ENDCHAR

STARTCHAR germandbls
ENCODING 223
SWIDTH 500 0
DWIDTH 7 0
BBX 6 10 1 0
BITMAP
38
64
44
5C
48
44
44
CC
88
B0
ENDCHAR

STARTCHAR agrave
ENCODING 224
SWIDTH 469 0
DWIDTH 7 0
BBX 6 10 0 0
BITMAP
30
10
00
3C
4C
C8
88
88
D8
68
ENDCHAR

STARTCHAR aacute
ENCODING 225
SWIDTH 469 0
DWIDTH 7 0
BBX 6 10 0 0
BITMAP
08
10
00
3C
4C
C8
88
88
D8
68
ENDCHAR

STARTCHAR acircumflex
ENCODING 226
SWIDTH 469 0
DWIDTH 7 0
BBX 6 10 0 0
BITMAP
18
34
00
3C
4C
C8
88
88
D8
68
ENDCHAR

STARTCHAR atilde
ENCODING 227
SWIDTH 469 0
DWIDTH 7 0
BBX 6 9 0 0
BITMAP
3C
20
3C
4C
C8
88
88
D8
68
ENDCHAR

STARTCHAR adieresis
ENCODING 228
SWIDTH 469 0
DWIDTH 7 0
BBX 6 9 0 0
BITMAP
24
00
3C
4C
C8
88
88
D8
68
ENDCHAR

STARTCHAR aring
ENCODING 229
SWIDTH 469 0
DWIDTH 7 0
BBX 6 11 0 0
BITMAP
38
28
38
00
3C
4C
C8
88
88
D8
68
ENDCHAR

STARTCHAR ae
ENCODING 230
SWIDTH 646 0
DWIDTH 9 0
BBX 8 7 0 0
BITMAP
76
49
09
3F
D8
99
EF
ENDCHAR

STARTCHAR ccedilla
ENCODING 231
SWIDTH 385 0
DWIDTH 5 0
BBX 5 10 0 -3
BITMAP
38
40
C0
80
80
C8
78
20
20
60
ENDCHAR

STARTCHAR egrave
ENCODING 232
SWIDTH 438 0
DWIDTH 6 0
BBX 5 10 1 0
BITMAP
30
10
00
70
48
C8
F8
80
C8
70
ENDCHAR

STARTCHAR eacute
ENCODING 233
SWIDTH 438 0
DWIDTH 6 0
BBX 5 10 1 0
BITMAP
08
10
00
70
48
C8
F8
80
C8
70
ENDCHAR

STARTCHAR ecircumflex
ENCODING 234
SWIDTH 438 0
DWIDTH 6 0
BBX 5 10 1 0
BITMAP
30
68
00
70
48
C8
F8
80
C8
70
ENDCHAR

STARTCHAR edieresis
ENCODING 235
SWIDTH 438 0
DWIDTH 6 0
BBX 5 9 1 0
BITMAP
48
00
70
48
C8
F8
80
C8
70
ENDCHAR

STARTCHAR igrave
ENCODING 236
SWIDTH 188 0
DWIDTH 3 0
BBX 2 10 0 0
BITMAP
C0
40
00
40
40
40
C0
C0
80
80
ENDCHAR

STARTCHAR iacute
ENCODING 237
SWIDTH 188 0
DWIDTH 3 0
BBX 3 10 0 0
BITMAP
20
40
00
40
40
40
C0
C0
80
80
ENDCHAR

STARTCHAR icircumflex
ENCODING 238
SWIDTH 188 0
DWIDTH 3 0
BBX 4 10 0 0
BITMAP
60
D0
00
40
40
40
C0
C0
80
80
ENDCHAR

STARTCHAR idieresis
ENCODING 239
SWIDTH 188 0
DWIDTH 3 0
BBX 4 9 0 0
BITMAP
90
00
40
40
40
C0
C0
80
80
ENDCHAR

STARTCHAR eth
ENCODING 240
SWIDTH 448 0
DWIDTH 6 0
BBX 5 10 0 0
BITMAP
38
10
68
38
48
C8
88
88
D8
70
ENDCHAR

STARTCHAR ntilde
ENCODING 241
SWIDTH 469 0
DWIDTH 7 0
BBX 6 9 0 0
BITMAP
3C
20
58
6C
4C
C8
C8
88
88
ENDCHAR

STARTCHAR ograve
ENCODING 242
SWIDTH 448 0
DWIDTH 6 0
BBX 5 10 1 0
BITMAP
30
10
00
30
48
88
88
88
98
70
ENDCHAR

STARTCHAR oacute
ENCODING 243
SWIDTH 448 0
DWIDTH 6 0
BBX 5 10 1 0
BITMAP
08
10
00
30
48
88
88
88
98
70
ENDCHAR

STARTCHAR ocircumflex
ENCODING 244
SWIDTH 448 0
DWIDTH 6 0
BBX 5 10 1 0
BITMAP
30
68
00
30
48
88
88
88
98
70
ENDCHAR

STARTCHAR otilde
ENCODING 245
SWIDTH 448 0
DWIDTH 6 0
BBX 5 9 1 0
BITMAP
78
40
30
48
88
88
88
98
70
ENDCHAR

STARTCHAR odieresis
ENCODING 246
SWIDTH 448 0
DWIDTH 6 0
BBX 6 9 1 0
BITMAP
24
00
30
48
88
88
88
98
70
ENDCHAR

STARTCHAR divide
ENCODING 247
SWIDTH 584 0
DWIDTH 8 0
BBX 7 5 1 2
BITMAP
10
00
FE
00
10
ENDCHAR

STARTCHAR oslash
ENCODING 248
SWIDTH 448 0
DWIDTH 6 0
BBX 6 7 1 0
BITMAP
34
48
98
B8
E8
D8
F0
ENDCHAR

STARTCHAR ugrave
ENCODING 249
SWIDTH 469 0
DWIDTH 7 0
BBX 6 10 1 0
BITMAP
30
10
00
4C
C8
C8
88
88
98
F8
ENDCHAR

STARTCHAR uacute
ENCODING 250
SWIDTH 469 0
DWIDTH 7 0
BBX 6 10 1 0
BITMAP
08
10
00
4C
C8
C8
88
88
98
F8
ENDCHAR

STARTCHAR ucircumflex
ENCODING 251
SWIDTH 469 0
DWIDTH 7 0
BBX 6 10 1 0
BITMAP
30
68
00
4C
C8
C8
88
88
98
F8
ENDCHAR

STARTCHAR udieresis
ENCODING 252
SWIDTH 469 0
DWIDTH 7 0
BBX 6 9 1 0
BITMAP
24
00
4C
C8
C8
88
88
98
F8
ENDCHAR

STARTCHAR yacute
ENCODING 253
SWIDTH 375 0
DWIDTH 5 0
BBX 6 13 0 -3
BITMAP
08
10
00
4C
48
58
50
70
20
20
40
40
80
ENDCHAR

STARTCHAR thorn
ENCODING 254
SWIDTH 490 0
DWIDTH 7 0
BBX 6 13 0 -3
BITMAP
20
20
60
78
4C
44
44
44
48
F0
80
80
80
ENDCHAR

STARTCHAR ydieresis
ENCODING 255
SWIDTH 375 0
DWIDTH 5 0
BBX 6 12 0 -3
BITMAP
24
00
4C
48
58
50
70
20
20
40
40
80
ENDCHAR
ENDFONT
